<svg width="100" height="100" viewBox="0 0 100 100" fill="none" xmlns="http://www.w3.org/2000/svg">
  <path fill-rule="evenodd" clip-rule="evenodd" d="M50 100C77.6142 100 100 77.6142 100 50C100 22.3858 77.6142 0 50 0C22.3858 0 0 22.3858 0 50C0 77.6142 22.3858 100 50 100ZM50 90C72.0914 90 90 72.0914 90 50C90 27.9086 72.0914 10 50 10C27.9086 10 10 27.9086 10 50C10 72.0914 27.9086 90 50 90Z" fill="black"/>
  <path d="M50 20L65 35L50 50L35 35L50 20Z" fill="black"/>
  <path d="M80 50L65 65L50 50L65 35L80 50Z" fill="black"/>
  <path d="M50 80L35 65L50 50L65 65L50 80Z" fill="black"/>
  <path d="M20 50L35 35L50 50L35 65L20 50Z" fill="black"/>
  <circle cx="50" cy="50" r="10" fill="black"/>
</svg>
